<svg width="130" height="40" viewBox="0 0 130 40" fill="none" xmlns="http://www.w3.org/2000/svg">
<mask id="mask0_12_91" style="mask-type:luminance" maskUnits="userSpaceOnUse" x="0" y="0" width="130" height="40">
<path d="M0 40H130V0H0V40Z" fill="white"/>
</mask>
<g mask="url(#mask0_12_91)">
<path d="M19.1124 29.1086L28.7839 10.9755C28.6246 10.4745 28.4456 9.98368 28.2442 9.5016L11.1234 1.50512L0.167786 18.849C0.20728 19.1301 0.25204 19.4112 0.302066 19.6894L19.1124 29.1086Z" fill="#FABA0E"/>
<path d="M61.4216 31.2781H57.4445C57.4287 31.2781 57.4169 31.2737 57.4063 31.2591L53.9782 26.6349L50.5501 31.2591C50.5409 31.2737 50.5251 31.2781 50.512 31.2781H47.3287C47.3064 31.2781 47.2892 31.2664 47.28 31.246C47.2708 31.23 47.2761 31.2067 47.2879 31.1892L52.3366 24.3323L47.3432 17.5395C47.3314 17.5205 47.3314 17.4972 47.3379 17.4768C47.3458 17.4637 47.3643 17.4448 47.3801 17.4448H51.3598C51.3716 17.4448 51.39 17.455 51.3979 17.4725L54.4021 21.5913L57.4629 17.4681C57.4721 17.455 57.4866 17.4448 57.5011 17.4448H60.7449C60.7633 17.4448 60.7831 17.4637 60.7897 17.4768C60.7989 17.4972 60.7949 17.5205 60.7831 17.5395L56.0477 23.8313L61.4597 31.1892C61.4729 31.2067 61.4755 31.23 61.465 31.246C61.4571 31.2664 61.44 31.2781 61.4216 31.2781Z" fill="#203562"/>
<path d="M82.9531 19.8814C81.193 19.8814 79.9884 21.0625 79.6422 23.1219H85.6374V22.9865C85.6374 21.3422 84.5394 19.8814 82.9531 19.8814ZM88.7245 25.2294C88.7179 25.2425 88.7008 25.2527 88.6811 25.2527H79.579C79.7685 27.5961 81.1443 28.9331 83.3744 28.9331C84.7461 28.9331 86.2021 28.4132 88.2611 27.2029C88.294 27.1825 88.3362 27.2175 88.3362 27.2597L88.3296 30.3532C88.3256 30.3808 88.3164 30.3969 88.3019 30.4012C86.3865 31.2969 84.4605 31.9014 82.9531 31.9014C79.034 31.9014 76.1877 28.7453 76.1877 24.392C76.1877 20.043 79.034 16.8825 82.9531 16.8825C86.5273 16.8825 88.8259 19.5478 88.8259 23.2108C88.8259 23.8036 88.7298 25.1843 88.7245 25.2294Z" fill="#203562"/>
<path d="M107.219 14.5892C106.101 14.5892 105.194 13.6003 105.194 12.3842C105.194 11.1345 106.101 10.115 107.219 10.115C108.337 10.115 109.241 11.1345 109.241 12.3842C109.241 13.6003 108.337 14.5892 107.219 14.5892ZM105.581 31.2786C105.55 31.2786 105.53 31.2567 105.53 31.2218V17.5006C105.53 17.4744 105.547 17.4526 105.571 17.4467H108.861C108.884 17.4526 108.9 17.4744 108.9 17.5006V31.2218C108.9 31.2567 108.879 31.2786 108.851 31.2786H105.581Z" fill="#203562"/>
<path d="M67.4401 29.2126C66.8425 29.2126 66.2369 29.1209 65.5418 28.9155L65.5457 20.1099C66.362 19.8229 67.0742 19.689 67.7772 19.689C70.056 19.689 71.5857 21.5459 71.5857 24.3117C71.5857 27.2901 69.9586 29.2126 67.4401 29.2126ZM68.3314 16.8868C67.4033 16.8868 66.4686 17.0703 65.4865 17.4446H62.2124C62.1848 17.4446 62.165 17.4723 62.165 17.4999V39.999C63.155 39.8534 64.3596 39.4631 65.5444 38.5353L65.5418 31.6915C66.3448 31.8197 67.0123 31.9012 67.6547 31.9012C72.1373 31.9012 75.0375 28.9315 75.0375 24.3335C75.0375 19.9497 72.2769 16.8868 68.3314 16.8868Z" fill="#203562"/>
<path d="M99.5957 28.0741C98.5689 28.6668 97.6566 28.9509 96.7969 28.9509C94.7669 28.9509 93.5505 27.3662 93.5505 24.7082C93.5505 21.6381 95.1026 19.6486 97.5039 19.6486C98.1661 19.6486 98.8124 19.8263 99.5957 20.218V28.0741ZM99.5957 10.1832V17.3649C98.6347 17.0576 97.7895 16.9177 96.9378 16.9177C93.0358 16.9177 90.0934 20.17 90.0934 24.4912C90.0934 28.7848 92.6908 31.9016 96.2624 31.9016C97.4999 31.9016 98.6624 31.5593 100.024 30.7845L100.018 32.0269C100.917 31.8346 101.95 31.4355 102.97 30.636V8.71361C101.971 8.85925 100.785 9.23064 99.5957 10.1832Z" fill="#203562"/>
<path d="M120.29 28.0454C119.298 28.6775 118.449 28.9833 117.69 28.9833C115.517 28.9833 114.218 27.4017 114.218 24.7364C114.218 21.7113 115.749 19.6781 118.03 19.6781C118.644 19.6781 119.381 19.9359 120.29 20.4675V28.0454ZM123.671 17.2808C123.671 17.1949 123.604 17.1265 123.528 17.1265L120.872 17.1323C120.791 17.1323 120.729 17.2051 120.729 17.291V17.7877H120.662C119.436 17.1949 118.385 16.9167 117.357 16.9167C113.68 16.9167 110.796 20.2928 110.796 24.6126C110.796 28.979 113.376 31.9021 117.216 31.9021C118.239 31.9021 119.56 31.8263 120.789 30.2563V32.0215C121.662 31.8176 122.689 31.4098 123.666 30.632L123.671 17.2808Z" fill="#203562"/>
<path d="M38.2404 27.7995L46.4762 27.7966C46.3525 28.8147 46.0405 30.009 45.3269 31.2222H38.2575H36.8528H36.758C35.7101 31.2222 34.8465 30.3235 34.7438 29.1861C34.7412 29.17 34.7333 29.154 34.7307 29.1409V19.8051V11.1713C34.7333 11.1582 34.7412 11.1422 34.7438 11.1277C34.8465 9.98726 35.7101 9.08572 36.758 9.08572C36.7936 9.08572 36.8225 9.093 36.8528 9.093L46.4578 9.09009C46.3327 10.1067 46.022 11.3286 45.3085 12.5389H38.2404V17.4282H45.2361C45.2664 17.4282 45.2874 17.4544 45.2874 17.4821V20.8756C45.2874 20.9018 45.2664 20.928 45.2361 20.928H38.2404V27.7966V27.7995Z" fill="#203562"/>
<path d="M61.4227 31.2769H57.4456C57.4298 31.2769 57.4167 31.2725 57.4061 31.2594L53.9807 26.6337L50.5513 31.2594C50.5421 31.2725 50.5249 31.2769 50.5118 31.2769H47.3272C47.3075 31.2769 47.2917 31.2667 47.2812 31.2448C47.2719 31.2288 47.2759 31.2055 47.2877 31.188L52.3364 24.3325L47.3457 17.5382C47.3312 17.5179 47.3312 17.4975 47.3378 17.4771C47.3457 17.4625 47.3641 17.4436 47.3825 17.4436H51.3596C51.3714 17.4436 51.3899 17.4538 51.3978 17.4713L54.4033 21.5915L57.4628 17.4669C57.472 17.4538 57.4864 17.4436 57.5022 17.4436H60.7447C60.7645 17.4436 60.7829 17.4625 60.7908 17.4771C60.7987 17.4975 60.7961 17.5208 60.7829 17.5382L56.0475 23.8301L61.4596 31.188C61.474 31.2055 61.4767 31.2288 61.4661 31.2448C61.4569 31.2667 61.4411 31.2769 61.4227 31.2769Z" fill="#203562"/>
<path d="M82.9531 19.8801C81.193 19.8801 79.9871 21.0613 79.6422 23.1222H85.6374V22.9867C85.6374 21.341 84.5408 19.8801 82.9531 19.8801ZM88.7245 25.2282C88.7179 25.2413 88.7008 25.2515 88.6811 25.2515H79.5816C79.7672 27.5949 81.1443 28.9319 83.3744 28.9319C84.7461 28.9319 86.2021 28.4134 88.2624 27.2031C88.2953 27.1813 88.3375 27.2162 88.3375 27.2599L88.3309 30.352C88.3269 30.3796 88.3177 30.3957 88.3019 30.4C86.3878 31.2957 84.4618 31.9016 82.9531 31.9016C79.0326 31.9016 76.1904 28.7455 76.1904 24.3907C76.1904 20.0433 79.0326 16.8828 82.9531 16.8828C86.5286 16.8828 88.8259 19.5452 88.8259 23.2096C88.8259 23.8023 88.7298 25.1816 88.7245 25.2282Z" fill="#203562"/>
<path d="M107.22 14.589C106.102 14.589 105.194 13.5986 105.194 12.3825C105.194 11.1328 106.102 10.1133 107.22 10.1133C108.336 10.1133 109.242 11.1328 109.242 12.3825C109.242 13.5986 108.336 14.589 107.22 14.589ZM105.582 31.2769C105.551 31.2769 105.531 31.2565 105.531 31.2215V17.4989C105.531 17.4727 105.547 17.4509 105.57 17.4465H108.86C108.884 17.4509 108.901 17.4727 108.901 17.4989V31.2215C108.901 31.2565 108.88 31.2769 108.852 31.2769H105.582Z" fill="#203562"/>
<path d="M67.4401 29.2116C66.8437 29.2116 66.2382 29.1213 65.5418 28.9145L65.547 20.1103C66.3632 19.8205 67.0754 19.688 67.7784 19.688C70.0559 19.688 71.587 21.5464 71.587 24.3122C71.587 27.2891 69.9598 29.2116 67.4401 29.2116ZM68.3314 16.8843C67.4032 16.8843 66.4699 17.0693 65.4865 17.4421H62.2137C62.1848 17.4421 62.1663 17.4698 62.1663 17.499V39.998C63.155 39.8524 64.3609 39.4606 65.5444 38.5343L65.5418 31.692C66.3448 31.8201 67.0123 31.9017 67.6547 31.9017C72.1373 31.9017 75.0375 28.9306 75.0375 24.334C75.0375 19.9458 72.2781 16.8843 68.3314 16.8843Z" fill="#203562"/>
<path d="M99.5957 28.0743C98.5715 28.6656 97.6579 28.9511 96.7969 28.9511C94.7669 28.9511 93.5505 27.365 93.5505 24.707C93.5505 21.6383 95.1039 19.6473 97.5051 19.6473C98.1673 19.6473 98.8137 19.8236 99.5957 20.2168V28.0743ZM99.5957 10.1805V17.3636C98.636 17.0549 97.7908 16.918 96.9378 16.918C93.037 16.918 90.0947 20.1687 90.0947 24.49C90.0947 28.7836 92.6908 31.9018 96.2637 31.9018C97.4999 31.9018 98.6623 31.5596 100.024 30.7847L100.018 32.0256C100.919 31.8334 101.951 31.4343 102.971 30.6362V8.71093C101.972 8.85803 100.786 9.22942 99.5957 10.1805Z" fill="#203562"/>
<path d="M120.29 28.0444C119.299 28.6765 118.449 28.9838 117.69 28.9838C115.517 28.9838 114.218 27.4007 114.218 24.7369C114.218 21.7118 115.75 19.6772 118.03 19.6772C118.644 19.6772 119.381 19.9335 120.29 20.468V28.0444ZM123.671 17.2799C123.671 17.1954 123.604 17.1255 123.528 17.1255L120.872 17.1313C120.792 17.1313 120.729 17.2041 120.729 17.2886V17.7882H120.662C119.436 17.1954 118.387 16.9172 117.357 16.9172C113.68 16.9172 110.796 20.2918 110.796 24.6131C110.796 28.978 113.376 31.9025 117.216 31.9025C118.242 31.9025 119.56 31.8268 120.791 30.2553V32.022C121.662 31.8181 122.69 31.4088 123.667 30.6311L123.671 17.2799Z" fill="#203562"/>
<path d="M38.2416 27.7981L46.4761 27.7966C46.3511 28.8132 46.0404 30.0075 45.3268 31.2222H38.2587H36.854H36.7579C35.71 31.2222 34.8477 30.3235 34.7437 29.1846C34.7411 29.17 34.7345 29.154 34.7319 29.1395V19.8051V11.1699C34.7345 11.1568 34.7411 11.1393 34.7437 11.1262C34.8477 9.9858 35.71 9.08427 36.7579 9.08427C36.7922 9.08427 36.8237 9.09155 36.854 9.09155L46.4577 9.08718C46.3326 10.1052 46.0219 11.3272 45.3084 12.536H38.2416V17.4268H45.2373C45.2676 17.4268 45.2887 17.453 45.2887 17.4792V20.8742C45.2887 20.9004 45.2676 20.9266 45.2373 20.9266H38.2416V27.7981Z" fill="#203562"/>
<path d="M127.18 16.9126H127.561C127.988 16.9126 128.19 16.78 128.19 16.4538C128.19 16.1145 127.975 15.9746 127.533 15.9746H127.18V16.9126ZM127.641 15.5683C128.403 15.5683 128.784 15.8552 128.784 16.381C128.784 16.8165 128.57 17.1121 128.182 17.2097L128.784 18.5613H128.136L127.601 17.3131H127.18V18.5613H126.599V15.5683H127.641ZM126.152 15.4867C125.75 15.9382 125.531 16.515 125.531 17.1121C125.531 17.7107 125.737 18.2729 126.126 18.7084C126.518 19.1453 127.033 19.3885 127.554 19.3885C128.123 19.3885 128.636 19.1599 129.044 18.7244C129.431 18.3108 129.644 17.7486 129.644 17.15C129.644 16.5062 129.444 15.9513 129.057 15.5159C128.656 15.0731 128.156 14.8357 127.588 14.8357C127.027 14.8357 126.539 15.0571 126.152 15.4867ZM129.311 15.242C129.759 15.746 130 16.3955 130 17.1121C130 17.852 129.752 18.5088 129.292 19.004C128.816 19.5152 128.208 19.7876 127.58 19.7876C126.939 19.7876 126.331 19.4992 125.871 18.9822C125.416 18.4724 125.17 17.8141 125.17 17.1121C125.17 16.4028 125.429 15.7227 125.898 15.2056C126.352 14.7032 126.926 14.4439 127.58 14.4439C128.242 14.4439 128.843 14.7177 129.311 15.242Z" fill="#203562"/>
<path d="M17.3239 12.5864L16.7275 10.7193L11.6683 3.23899L12.5767 2.98848L21.3009 11.331L26.4339 9.70559C27.0368 9.53518 27.72 9.49731 28.244 9.50168C26.63 5.65086 23.6772 2.49183 19.7804 0.953833C12.0738 -2.08284 3.60096 2.37095 0.860065 10.8999C0.0122566 13.5389 -0.187847 16.2596 0.1676 18.8491L12.4635 14.123L17.3239 12.5864Z" fill="#203561"/>
<path d="M28.7842 10.9758C28.3326 11.2962 27.6731 11.7244 27.0148 11.9574L21.8687 13.5799L18.4367 25.7717L17.5454 26.0936L18.2721 16.7811L17.8653 14.8484L13.0457 16.3719L0.300964 19.6896C1.31333 25.1134 4.78355 29.8396 9.84407 31.8349C17.552 34.873 26.0196 30.4163 28.7631 21.8932C29.944 18.2201 29.8676 14.3882 28.7842 10.9758Z" fill="#203561"/>
<path d="M27.9451 31.5635C27.1315 31.5635 26.6273 30.86 26.6273 29.9993C26.6273 29.0773 27.2052 28.4336 27.9451 28.4336C28.6783 28.4336 29.2536 29.0773 29.2536 29.9993C29.2536 30.9226 28.6783 31.5635 27.9451 31.5635ZM27.9451 28.2574C27.1117 28.2574 26.3995 28.9506 26.3995 29.9993C26.3995 30.9882 27.042 31.7339 27.9451 31.7339C28.7692 31.7339 29.4827 31.045 29.4827 29.9993C29.4827 28.9506 28.7692 28.2574 27.9451 28.2574Z" fill="#203561"/>
<path d="M27.575 29.8564V29.2228H27.9634C28.1582 29.2228 28.3899 29.2534 28.3899 29.5185C28.3899 29.8301 28.1753 29.8564 27.9344 29.8564H27.575ZM28.6756 29.5607C28.6756 29.1427 28.4452 28.9679 27.9963 28.9679H27.2906V31.0259H27.5961V30.1462H27.8831L28.3649 31.0259H28.7098L28.1898 30.1229C28.4702 30.085 28.6756 29.9335 28.6756 29.5607Z" fill="#203561"/>
</g>
</svg>
