<svg width="130" height="70" viewBox="0 0 130 70" fill="none" xmlns="http://www.w3.org/2000/svg">
<path fill-rule="evenodd" clip-rule="evenodd" d="M0 0H130V70H0V0Z" fill="white"/>
<path fill-rule="evenodd" clip-rule="evenodd" d="M41.2096 41.8512V28.1396H34.9286V41.8512H41.2096ZM50.7163 41.8512V31.6132H44.4347V41.8512H50.7163ZM50.7163 28.1396V30.6992H44.4347V28.1396H50.7163ZM2.67346 41.8512H10.4827L23.8937 31.0645C24.4028 30.5619 25.3369 30.653 25.252 31.2014V41.8509H31.5329V28.1396H19.7351L2.67346 41.8512Z" fill="black"/>
<path fill-rule="evenodd" clip-rule="evenodd" d="M12.8593 41.8512H23.2152V33.5328L12.8593 41.8512ZM96.2112 41.8512V28.1396H89.9309V41.8512H96.2112ZM105.718 41.8512V31.6132H99.4369V41.8512H105.718ZM105.718 28.1396V30.6992H99.4369V28.1396H105.718ZM59.6794 41.8505C58.3827 41.8504 57.1392 41.573 56.2224 41.0792C55.3056 40.5855 54.7905 39.9159 54.7905 39.2176V29.7851H60.0106V30.5829C60.0106 30.7212 60.0612 30.8581 60.1594 30.9858C60.2577 31.1135 60.4017 31.2295 60.5833 31.3272C60.7648 31.425 60.9804 31.5025 61.2176 31.5554C61.4548 31.6082 61.709 31.6354 61.9657 31.6354H66.5033V34.1727L62.4749 34.1498C61.3945 34.1498 60.5198 34.667 60.5198 35.2487V38.0327C60.5198 38.1709 60.5704 38.3078 60.6686 38.4355C60.7669 38.5632 60.9109 38.6792 61.0925 38.777C61.274 38.8747 61.4896 38.9522 61.7268 39.0051C61.964 39.058 62.2182 39.0851 62.4749 39.0851H67.1831V41.8512L59.6794 41.8505ZM118.62 31.4302C111.32 31.4302 109.878 32.8011 109.878 33.7155V34.6753H115.14C115.735 33.7155 117.516 33.1214 118.62 33.1214C119.724 33.1214 121.166 33.1668 121.166 34.1727C121.166 35.1787 118.79 35.3606 115.65 35.4982C112.432 35.6388 108.774 36.6407 108.774 38.926C108.774 41.2114 113.272 41.8512 115.904 41.8512L125.538 41.8563C126.316 41.8563 126.938 41.5393 126.938 41.1202V33.8528C126.939 32.8472 125.92 31.4302 118.62 31.4302ZM117.516 39.8405C115.904 39.8405 115.056 39.1545 115.056 38.6519C115.056 37.9205 116.413 37.0064 118.705 37.0064H121.336V39.8408L117.516 39.8405ZM77.7082 31.4302C70.4082 31.4302 68.9656 32.8011 68.9656 33.7155V34.6753H74.2282C74.8224 33.7155 76.6042 33.1214 77.7082 33.1214C78.8109 33.1214 80.2542 33.1668 80.2542 34.1727C80.2542 35.1787 77.8782 35.3606 74.7374 35.4982C71.5204 35.6388 67.8616 36.6407 67.8616 38.926C67.8616 41.2114 72.36 41.8512 74.9916 41.8512L84.6258 41.8563C85.4041 41.8563 86.026 41.5393 86.026 41.1202V33.8528C86.0266 32.8472 85.0082 31.4302 77.7082 31.4302ZM76.6042 39.8405C74.9916 39.8405 74.1425 39.1545 74.1425 38.6519C74.1425 37.9205 75.5022 37.0064 77.7925 37.0064H80.4242V39.8408L76.6042 39.8405Z" fill="black"/>
</svg>
