<svg width="131" height="71" viewBox="0 0 131 71" fill="none" xmlns="http://www.w3.org/2000/svg">
<path fill-rule="evenodd" clip-rule="evenodd" d="M0.560425 0.660034H130.56V70.66H0.560425V0.660034Z" fill="white"/>
<path fill-rule="evenodd" clip-rule="evenodd" d="M21.1049 26.2169C21.1049 26.2169 38.1908 32.9854 39.9976 33.6336C41.8037 34.3225 37.7389 32.7421 37.7389 32.7421C37.7389 32.7421 44.0617 34.6468 42.2549 37.2408C40.8251 39.3482 34.7283 40.1587 34.7283 40.1587C34.7283 40.1587 38.4167 40.4424 42.7816 39.7538C42.7816 39.7538 45.7174 39.2269 46.9968 38.7C48.2762 38.2141 48.7274 37.8487 48.7274 37.8487C48.7274 37.8487 52.1144 39.1459 53.0936 39.4299C54.1471 39.7135 64.9103 42.2258 65.4377 42.3478C66.04 42.4691 79.136 45.5091 79.136 45.5091C79.136 45.5091 60.1691 38.092 59.1149 37.6054C58.0615 37.1195 54.5234 35.701 56.631 33.35C56.631 33.35 58.0615 32.0532 61.2974 31.4452L62.2004 31.3236C62.2004 31.3236 58.8135 30.959 54.6738 31.8908C50.835 32.7421 50.3076 33.2686 50.3076 33.2686C50.3076 33.2686 47.6733 32.1338 46.2435 31.7692C44.7382 31.4042 33.749 28.9725 32.846 28.7292C31.9436 28.5269 21.1049 26.2169 21.1049 26.2169Z" fill="#938D5F"/>
<path fill-rule="evenodd" clip-rule="evenodd" d="M21.3307 25.8113C21.3307 25.8113 38.3412 32.5797 40.1473 33.2283C42.0289 33.9172 37.9648 32.3368 37.9648 32.3368C37.9648 32.3368 44.2121 34.2415 42.4808 36.8355C40.9755 38.9429 34.9542 39.7535 34.9542 39.7535C34.9542 39.7535 38.5664 40.0371 43.0075 39.3478C43.0075 39.3478 45.9433 38.8216 47.2227 38.2947C48.4272 37.8081 48.954 37.4434 48.954 37.4434C48.954 37.4434 52.2654 38.7399 53.3195 39.0239C54.2981 39.3075 65.0613 41.8205 65.6636 41.9418L79.2877 45.1031C79.2877 45.1031 60.3194 37.6868 59.266 37.2001C58.2125 36.7135 54.75 35.295 56.782 32.9447C56.782 32.9447 58.2867 31.6479 61.5239 31.0396L62.3515 30.9183C62.3515 30.9183 59.04 30.5533 54.9004 31.4856C50.9867 32.3368 50.5348 32.8634 50.5348 32.8634C50.5348 32.8634 47.825 31.7285 46.3952 31.3639C44.9654 30.9989 33.9007 28.5672 32.997 28.3239C32.0939 28.1217 21.3307 25.8113 21.3307 25.8113Z" fill="#2C2E32"/>
<path fill-rule="evenodd" clip-rule="evenodd" d="M105.857 32.4988V31.364H97.1264V39.2266H105.857V34.2416C105.857 34.2416 107.89 32.9851 110.976 32.9041C113.987 32.7824 115.568 33.3094 115.793 34.1199C116.095 34.9305 115.793 39.2266 115.793 39.2266H124.524V34.1199C124.524 34.1199 124.524 31.8099 118.127 31.4449C111.955 31.0397 110.073 31.4856 109.847 31.5259C109.622 31.5662 105.857 32.4988 105.857 32.4988ZM32.2444 37.6868C31.5673 37.6868 30.4383 37.8891 30.8139 36.1463C30.8139 36.1463 30.8139 33.9173 30.7391 33.4717C30.6635 33.0258 30.8139 32.0939 26.0727 31.5263C21.4063 30.959 17.4171 31.202 16.4385 31.2427C15.5354 31.3237 12.0729 31.5263 11.0188 31.6886C9.96534 31.8103 7.70668 32.1749 7.70668 32.1749V34.1203C7.70668 34.1203 12.0723 33.1474 15.3088 32.9854C20.1263 32.6611 21.782 33.4314 21.782 33.4314C21.782 33.4314 22.5346 33.9583 21.9331 34.161C21.3308 34.4039 17.5675 34.4853 13.1264 35.0118C8.68528 35.5388 5.59977 36.1467 6.42729 37.7275C6.42729 37.7275 7.25549 39.5106 14.1043 39.3893C20.8783 39.3076 22.5346 38.4977 22.5346 38.4977C22.5346 38.4977 23.7392 39.5509 27.8788 39.4296C31.9429 39.2673 35.4061 38.6594 35.4061 38.6594V37.2409C35.4061 37.2405 32.9222 37.6868 32.2444 37.6868ZM22.4598 37.5648C22.4598 37.5648 20.653 38.0111 18.8469 38.0917C17.1163 38.1727 16.137 37.9704 15.6103 37.7271C15.008 37.4838 14.9332 36.8759 16.5889 36.5113C18.2446 36.1863 19.2987 36.065 20.4271 35.9441C21.5561 35.822 22.4598 35.7817 22.4598 35.7817V37.5648ZM78.6861 31.2423C78.6861 31.2423 64.5353 30.999 63.6316 35.0521C62.7285 39.2266 78.6861 39.4296 78.6861 39.4296C78.6861 39.4296 93.4379 39.4699 93.2126 35.2145C93.0623 31.202 78.6861 31.2423 78.6861 31.2423ZM78.3847 37.8891C78.3847 37.8891 72.1368 37.9301 72.5886 35.1738C72.9657 32.4178 78.6099 32.7015 78.6099 32.7015C78.6099 32.7015 84.3304 32.4178 84.2556 35.2955C84.2556 38.1727 78.3847 37.8891 78.3847 37.8891Z" fill="#938D5F"/>
<path fill-rule="evenodd" clip-rule="evenodd" d="M84.18 42.9958C83.9534 43.0768 83.7282 43.1178 83.5778 43.1178C83.4274 43.1178 83.3512 43.0768 83.3512 42.9958V41.9012C83.3512 41.4153 82.3739 41.2127 81.1687 41.2127C80.2663 41.2127 79.5879 41.2937 79.136 41.4963V41.9419C79.6627 41.6993 80.3412 41.6176 81.0183 41.6176C81.7703 41.6176 82.1473 41.6993 82.1473 41.9829V42.1042L81.0939 42.2255C80.1153 42.3475 78.9863 42.4688 78.9863 42.9148C78.9863 43.1581 79.5885 43.4014 80.4916 43.4014C81.0183 43.4014 81.6206 43.3604 82.1473 43.1984C82.2222 43.36 82.5243 43.4014 83.051 43.4014C83.428 43.4014 83.6533 43.4014 84.18 43.2391V42.9958ZM82.148 42.9555C81.8479 43.0364 81.4709 43.1178 81.0945 43.1178C80.5678 43.1178 80.1908 42.9958 80.1908 42.8342C80.1908 42.5909 81.0945 42.4285 82.148 42.3072V42.9555ZM87.6419 41.253H86.438V43.3604H87.6419V41.253ZM87.7936 40.6048C87.7936 40.4827 87.4921 40.3615 87.1151 40.3615C86.6646 40.3615 86.3632 40.4827 86.3632 40.6048C86.3632 40.7261 86.6646 40.8481 87.1151 40.8481C87.4915 40.8481 87.7936 40.7261 87.7936 40.6048ZM90.6532 41.253V43.3604H91.857V42.2666C91.857 41.9012 92.5355 41.6176 93.3624 41.6176C93.6638 41.6176 94.1157 41.6993 94.4914 41.8206L95.0936 41.456C94.5669 41.2937 94.1164 41.2127 93.6645 41.2127C93.0622 41.2127 92.5355 41.3743 91.857 41.7396V41.253H90.6532ZM98.3302 40.1588H97.1264V43.3604H98.3302V40.1588ZM102.47 41.253H101.266V43.3604H102.47V41.253ZM102.622 40.6048C102.622 40.4827 102.245 40.3615 101.868 40.3615C101.492 40.3615 101.191 40.4827 101.191 40.6048C101.191 40.7261 101.491 40.8481 101.868 40.8481C102.245 40.8481 102.622 40.7261 102.622 40.6048ZM106.535 41.253H105.33V43.3604H106.535V41.8609C107.138 41.6176 107.514 41.5366 108.041 41.5366C108.793 41.5366 109.244 41.7396 109.244 42.0636V43.36H110.448V42.0636C110.448 41.4963 109.545 41.2123 108.416 41.2123C107.738 41.2123 107.061 41.3336 106.609 41.5366H106.535L106.535 41.253ZM118.427 42.7525C117.675 42.9148 116.997 43.0361 116.245 43.0361C115.116 43.0361 114.439 42.7928 114.212 42.3878H118.502C118.502 41.5773 117.449 41.2127 115.868 41.2127C114.212 41.2127 113.008 41.6583 113.008 42.3072C113.008 42.8745 114.062 43.4018 115.944 43.4018C116.997 43.4018 117.675 43.3201 118.428 43.1585L118.427 42.7525ZM114.287 42.1042C114.439 41.7799 114.966 41.5773 115.868 41.5773C116.772 41.5773 117.298 41.7803 117.298 42.1042H114.287ZM124.524 41.3743C123.846 41.253 123.32 41.2127 122.718 41.2127C121.514 41.2127 120.685 41.4157 120.685 41.7799C120.685 42.3472 123.546 42.5091 123.546 42.7928C123.546 42.9551 123.169 43.0361 122.642 43.0361C122.19 43.0361 121.438 42.9551 120.685 42.7525V43.2391C121.438 43.3604 122.04 43.4014 122.792 43.4014C123.921 43.4014 124.825 43.1581 124.825 42.7928C124.825 42.5502 124.448 42.4282 123.395 42.1848C122.341 41.9415 121.966 41.8606 121.966 41.7799C121.966 41.6579 122.266 41.5769 122.718 41.5769C123.169 41.5769 123.846 41.6579 124.524 41.7799V41.3743Z" fill="#2C2E32"/>
</svg>
