<svg width="130" height="70" viewBox="0 0 130 70" fill="none" xmlns="http://www.w3.org/2000/svg">
<path d="M47.4424 34.7853H44.974V39.0759C44.974 39.8541 45.5387 40.0246 46.4076 40.0246C46.7379 40.0246 47.0901 39.9869 47.4424 39.9869V42.3614C46.7132 42.3802 45.9841 42.4554 45.2563 42.4554C41.8465 42.4554 40.9762 41.6585 40.9762 38.9807V34.7853H38.9546V32.6179H40.9762V29.5228H44.974V32.6179H47.4424V34.7853ZM67.5656 34.7853H65.0959V39.0759C65.0959 39.8541 65.6605 40.0246 66.5308 40.0246C66.8597 40.0246 67.2134 39.9869 67.5656 39.9869V42.3614C66.8365 42.3802 66.1073 42.4554 65.3782 42.4554C61.9683 42.4554 61.0994 41.6585 61.0994 38.9807V34.7853H59.0765V32.6179H61.0994V29.5228H65.0959V32.6179H67.5656V34.7853ZM26.1492 38.2607C26.1492 41.1422 24.3196 42.6 20.5739 42.6C16.3596 42.6 15 40.6374 15 37.7737V37.2158H18.9019V38.4047C18.9019 39.2515 19.4816 39.7197 20.5068 39.7197C21.4661 39.7197 22.0007 39.2869 22.0007 38.0438V29.4714H26.1492V38.2607ZM35.4644 36.4259C35.3944 35.3345 34.4392 34.43 33.1098 34.43C31.7104 34.43 30.7785 35.2404 30.5455 36.4259H35.4644ZM30.5455 38.2137C30.6154 39.5509 31.5706 40.4354 33.2496 40.4354C34.2048 40.4354 35.1382 40.0789 35.5123 39.3627H39.2169C38.4946 41.622 35.9071 42.6006 33.203 42.6006C29.2641 42.6006 26.5819 40.6811 26.5819 37.4045C26.5819 34.4113 29.5436 32.2649 33.1098 32.2649C37.4461 32.2649 39.6129 34.9017 39.4279 38.2137H30.5455ZM51.3389 39.1082C51.3389 39.5964 51.5938 39.954 51.9899 40.1975C52.3613 40.4233 52.8972 40.5351 53.455 40.5351C54.2225 40.5351 55.3148 40.2728 55.3148 39.5023C55.3148 38.7507 54.0827 38.6013 53.3851 38.4706C50.8962 37.9625 47.781 37.9072 47.781 35.277C47.781 32.9302 50.9222 32.2915 53.2919 32.2915C55.9425 32.2915 58.7096 32.9114 58.8494 35.4464H55.1996C55.1996 35.0335 55.0119 34.77 54.6871 34.6007C54.3623 34.4324 53.921 34.3571 53.4317 34.3571C52.7807 34.3571 51.735 34.4136 51.735 35.09C51.735 36.0098 54.3842 36.1781 56.1988 36.498C58.6411 36.8921 59.2675 38.319 59.2675 39.127C59.2675 41.7373 56.1988 42.6007 53.4783 42.6007C50.618 42.6007 47.6878 41.8313 47.5727 39.1082H51.3389ZM73.3914 40.6339C75.2704 40.6339 75.8953 39.7727 75.8022 37.769C75.2457 38.0491 74.2247 38.1055 73.3668 38.2926C72.4855 38.462 71.744 38.7609 71.744 39.5291C71.744 40.3161 72.5102 40.6339 73.3914 40.6339ZM68.289 35.596C68.3588 34.3219 69.1003 33.4972 70.1666 32.9925C71.2342 32.5043 72.6239 32.3172 73.9931 32.3172C76.8465 32.3172 79.604 32.8231 79.604 35.5772V39.8302C79.604 40.6527 79.604 41.5526 80.07 42.3208H76.1037C75.9653 42.0209 75.9173 41.7209 75.8721 41.4032C74.851 42.2644 73.3435 42.5998 71.9057 42.5998C69.6101 42.5998 67.8024 41.6645 67.8024 39.6608C67.8024 36.4938 72.0689 36.7385 74.8058 36.289C75.4774 36.1761 75.8488 35.989 75.8488 35.3901C75.8488 34.6585 74.7592 34.3773 73.9465 34.3773C72.8569 34.3773 72.1621 34.7714 71.9757 35.596H68.289ZM85.6787 32.9022C85.0756 33.2211 84.6069 33.6871 84.3218 34.2937H84.2766V32.5845H80.4391V42.3313H84.3918V37.505C84.3918 36.2851 85.4128 35.1948 87.3672 35.1948C87.8208 35.1948 88.2265 35.2512 88.6499 35.3365L85.6787 32.9022Z" fill="#100E0C"/>
<path fill-rule="evenodd" clip-rule="evenodd" d="M103.056 23.9094L103.571 30.5922H115L104.054 36.4425L106.468 46.0908L97.164 39.5642L84.6387 44.8167L92.1081 36.5477L85.0252 30.5922H96.4883L103.056 23.9094Z" fill="#5E6282"/>
</svg>
